<svg xmlns="http://www.w3.org/2000/svg" viewBox="0 0 128 128">
  <defs>
    <linearGradient id="bg" x1="0" y1="0" x2="1" y2="1">
      <stop offset="0%" stop-color="#e66100"/>
      <stop offset="100%" stop-color="#b44c00"/>
    </linearGradient>
  </defs>
  <rect width="128" height="128" rx="20" fill="url(#bg)"/>
  <!-- Document -->
  <rect x="28" y="18" width="56" height="72" rx="4" fill="white" opacity="0.95"/>
  <path d="M72,18 L84,30 L72,30 Z" fill="white" opacity="0.7"/>
  <rect x="72" y="18" width="12" height="12" fill="url(#bg)" opacity="0.15"/>
  <!-- .desktop text lines -->
  <rect x="36" y="36" width="20" height="3" rx="1.5" fill="#e66100" opacity="0.7"/>
  <rect x="58" y="36" width="16" height="3" rx="1.5" fill="#2c3e50" opacity="0.4"/>
  <rect x="36" y="44" width="32" height="3" rx="1.5" fill="#e66100" opacity="0.7"/>
  <rect x="36" y="52" width="28" height="3" rx="1.5" fill="#2c3e50" opacity="0.4"/>
  <rect x="36" y="60" width="24" height="3" rx="1.5" fill="#e66100" opacity="0.7"/>
  <rect x="62" y="60" width="14" height="3" rx="1.5" fill="#2c3e50" opacity="0.4"/>
  <rect x="36" y="68" width="36" height="3" rx="1.5" fill="#2c3e50" opacity="0.3"/>
  <rect x="36" y="76" width="18" height="3" rx="1.5" fill="#e66100" opacity="0.5"/>
  <!-- Pencil overlay -->
  <g transform="translate(72,68) rotate(-45)">
    <rect x="0" y="0" width="8" height="36" rx="2" fill="#f6d32d"/>
    <rect x="0" y="0" width="8" height="8" rx="2" fill="#ff7800"/>
    <polygon points="1,36 7,36 4,44" fill="#2c3e50"/>
    <rect x="2" y="32" width="4" height="4" fill="#f5c211" opacity="0.6"/>
  </g>
</svg>
